<svg width="834" height="197" viewBox="0 0 834 197" fill="none" xmlns="http://www.w3.org/2000/svg">
<path fill-rule="evenodd" clip-rule="evenodd" d="M99.8346 193.774H61.5589L0 73.5049H36.6745L80.969 164.019L125.171 73.5049H161.845L99.8335 193.774H99.8346ZM679.574 5.57339C681.082 5.96333 683.347 7.03216 684.911 7.69694C686.964 8.57315 688.18 9.21444 689.756 10.4677C696.659 15.9586 692.786 27.0345 692.575 34.3976C692.162 48.9243 703.974 61.6492 717.16 66.5329L710.628 77.1706C708.635 76.332 706.574 75.5686 704.438 74.8803C695.249 71.9228 685.15 70.4582 674.114 70.4582C662.111 70.4582 651.256 72.0708 641.491 75.3266C631.755 78.5531 623.442 83.0339 616.577 88.7985C609.684 94.535 604.362 101.316 600.614 109.083C596.865 116.879 594.99 125.332 594.99 134.414C594.99 144.242 596.865 152.995 600.584 160.761C604.301 168.528 609.714 175.101 616.788 180.446C623.863 185.823 632.601 189.918 642.971 192.754C653.343 195.593 665.164 196.997 678.437 196.997C688.838 196.997 698.996 196.279 708.943 194.846C718.922 193.442 728.867 191.082 738.846 187.826V159.744C736.367 161.209 733.101 162.672 729.05 164.107C725.029 165.57 720.492 166.914 715.474 168.11C710.457 169.305 705.044 170.261 699.268 170.976C693.463 171.723 687.567 172.081 681.551 172.081C673.025 172.081 665.738 171.454 659.632 170.229C653.494 169.005 648.353 167.303 644.152 165.092C639.979 162.881 636.654 160.193 634.205 157.026C631.756 153.891 630.004 150.425 628.915 146.631H748.856V138.566C748.856 127.543 747.041 117.802 743.414 109.32C740.057 101.5 735.435 94.8309 729.542 89.2871L738.835 76.3297C739.762 75.7682 746.096 71.8817 748.757 68.3699C750.87 67.9059 753.019 67.2987 755.174 66.5129C758.536 64.9226 761.682 63.1467 764.79 60.9938C770.014 57.3762 769.186 56.574 778.177 55.9891C784.66 55.5663 789.477 53.135 791.671 53.3323C794.028 53.5414 835.742 60.1258 833.944 56.4566C833.685 55.9292 832.746 55.6544 831.675 55.3807C831.167 55.2538 830.882 54.9872 830.762 54.8181C833.736 54.1404 833.258 51.4519 833.258 51.4519C833.162 50.0459 831.778 48.9936 829.936 48.6494C822.48 47.2564 814.875 47.0908 807.299 46.3356C802.637 45.8693 795.639 44.8111 793.366 44.1592C795.788 43.7058 799.995 43.6718 801.927 42.8167C800.562 40.6767 797.901 39.959 794.878 39.3001C789.2 38.0634 782.277 37.5031 776.901 35.5134C774.199 34.5163 772.228 33.1514 769.646 32.0016C760.891 28.0974 748.434 22.213 739.659 19.0418C733.538 16.8336 727.581 15.7225 723.06 11.7209C720.705 9.63727 718.736 7.14021 716.24 5.18579C710.65 0.803602 703.35 -1.77098 696.434 1.42023C693.796 2.63705 692.138 3.82685 688.198 3.69413C684.204 3.33237 681.1 3.45453 679.576 5.56986L679.574 5.57339ZM714.365 78.8714L718.837 71.5893C719.75 70.1058 721.4 67.92 723.414 68.3123C726.696 68.9477 730.226 69.4152 733.572 69.5996C735.295 69.6947 737.599 71.0642 735.89 73.4485L726.461 86.5975C722.803 83.6141 718.776 81.0407 714.367 78.8725L714.365 78.8714ZM337.479 133.73C337.479 144.065 335.575 153.177 331.735 161.063C327.895 168.98 322.394 175.581 315.256 180.898C308.092 186.217 299.443 190.22 289.256 192.937C279.066 195.655 267.637 197 254.94 197C242.24 197 230.782 195.655 220.532 192.937C210.281 190.22 201.544 186.216 194.35 180.898C187.153 175.58 181.591 168.98 177.689 161.063C173.79 153.177 171.855 144.066 171.855 133.73C171.855 123.393 173.79 114.282 177.689 106.397C181.591 98.479 187.153 91.8782 194.35 86.561C201.544 81.2427 210.283 77.2399 220.532 74.5221C230.783 71.8042 242.241 70.4594 254.94 70.4594C267.637 70.4594 279.066 71.8042 289.256 74.5221C299.443 77.2399 308.092 81.2439 315.256 86.561C322.394 91.8793 327.895 98.479 331.735 106.397C335.575 114.282 337.479 123.393 337.479 133.73ZM304.282 133.73C304.282 129.248 303.555 124.767 302.105 120.288C300.655 115.836 298.083 111.832 294.396 108.249C290.706 104.695 285.688 101.826 279.308 99.5843C272.929 97.3738 264.796 96.2686 254.941 96.2686C248.318 96.2686 242.513 96.7771 237.493 97.7931C232.476 98.8091 228.121 100.242 224.462 102.036C220.804 103.856 217.722 105.977 215.242 108.397C212.761 110.816 210.796 113.416 209.316 116.193C207.834 118.943 206.775 121.839 206.171 124.858C205.536 127.845 205.234 130.802 205.234 133.73C205.234 136.717 205.536 139.704 206.171 142.751C206.775 145.767 207.834 148.695 209.316 151.443C210.796 154.224 212.761 156.821 215.242 159.211C217.721 161.601 220.804 163.693 224.462 165.456C228.121 167.247 232.476 168.653 237.493 169.666C242.513 170.682 248.318 171.191 254.941 171.191C264.797 171.191 272.93 170.086 279.308 167.875C285.688 165.633 290.707 162.767 294.396 159.211C298.083 155.627 300.655 151.623 302.105 147.174C303.555 142.692 304.282 138.211 304.282 133.732V133.73ZM367.442 193.774V73.5049H400.278V193.774H367.442ZM572.463 185.528C568.228 187.291 563.937 188.876 559.643 190.249C555.32 191.652 550.876 192.879 546.249 193.892C541.654 194.908 536.786 195.686 531.675 196.223C526.565 196.731 521.093 196.999 515.258 196.999C502.861 196.999 491.433 195.685 481.003 193.055C470.6 190.427 461.621 186.483 454.094 181.196C446.565 175.909 440.699 169.336 436.527 161.421C432.326 153.533 430.238 144.274 430.238 133.729C430.238 123.152 432.326 113.923 436.527 106.037C440.698 98.1196 446.565 91.5164 454.094 86.2604C461.621 80.9726 470.601 77.0309 481.003 74.4011C491.433 71.7713 502.862 70.457 515.258 70.457C521.093 70.457 526.565 70.726 531.675 71.2334C536.786 71.7713 541.654 72.5477 546.249 73.5636C550.875 74.5773 555.318 75.8035 559.643 77.1777C563.937 78.5813 568.228 80.1645 572.463 81.9287V111.145C569.107 109.322 565.57 107.53 561.851 105.768C558.131 103.975 554.019 102.362 549.546 100.958C545.04 99.5232 540.112 98.3592 534.73 97.4314C529.38 96.5364 523.302 96.0865 516.591 96.0865C506.249 96.0865 497.663 97.1318 490.86 99.2237C484.027 101.345 478.585 104.152 474.504 107.649C470.422 111.144 467.579 115.145 465.916 119.685C464.253 124.197 463.438 128.888 463.438 133.727C463.438 136.922 463.8 140.088 464.496 143.225C465.222 146.331 466.4 149.288 468.034 152.068C469.697 154.846 471.844 157.387 474.504 159.715C477.166 162.045 480.461 164.078 484.419 165.75C488.382 167.452 493.007 168.767 498.297 169.753C503.589 170.708 509.665 171.186 516.591 171.186C523.302 171.186 529.38 170.767 534.73 169.931C540.113 169.065 545.04 167.96 549.546 166.556C554.019 165.153 558.131 163.569 561.851 161.776C565.57 160.013 569.108 158.161 572.463 156.31V185.524V185.528ZM716.17 122.797C715.866 119.81 714.989 116.731 713.479 113.567C711.966 110.37 709.577 107.502 706.341 104.932C703.108 102.364 698.844 100.243 693.585 98.6C688.322 96.9275 681.792 96.0889 673.931 96.0889C666.553 96.0889 660.176 96.9862 654.793 98.8091C649.41 100.6 644.907 102.872 641.278 105.56C637.651 108.219 634.84 111.115 632.813 114.222C630.818 117.299 629.517 120.167 628.914 122.797H716.171H716.17Z" fill="white"/>
</svg>
