<svg width="20" height="25" viewBox="0 0 20 25" fill="none" xmlns="http://www.w3.org/2000/svg">
<g id="Group 55">
<path id="?" d="M9.33498 11.0501C9.33498 10.5533 9.42857 10.1409 9.61576 9.81301C9.80296 9.48509 10.1379 9.09259 10.6207 8.6355C11.0148 8.27778 11.2956 7.97471 11.4631 7.72629C11.6404 7.46793 11.7291 7.15989 11.7291 6.80217C11.7291 6.3252 11.5764 5.94264 11.2709 5.65447C10.9655 5.35637 10.5419 5.20732 10 5.20732C9.50739 5.20732 9.1133 5.3514 8.81773 5.63957C8.53202 5.9178 8.31527 6.26558 8.16749 6.68293L7 6.19106C7.21675 5.61472 7.57143 5.10795 8.06404 4.67073C8.55665 4.22358 9.19704 4 9.98522 4C10.5764 4 11.0985 4.12421 11.5517 4.37263C12.0148 4.61111 12.3695 4.94399 12.6158 5.37127C12.8719 5.79856 13 6.27552 13 6.80217C13 7.34869 12.8621 7.81572 12.5862 8.20325C12.3202 8.58085 11.9754 8.96341 11.5517 9.35095C11.2266 9.64905 10.9901 9.93225 10.8424 10.2005C10.6946 10.4688 10.6207 10.7818 10.6207 11.1396V11.7656H9.33498V11.0501ZM9.97044 15C9.71429 15 9.49261 14.9106 9.30542 14.7317C9.12808 14.5429 9.03941 14.3144 9.03941 14.0461C9.03941 13.7877 9.12808 13.5691 9.30542 13.3902C9.49261 13.2014 9.71429 13.107 9.97044 13.107C10.2365 13.107 10.4581 13.2014 10.6355 13.3902C10.8227 13.5691 10.9163 13.7877 10.9163 14.0461C10.9163 14.3144 10.8227 14.5429 10.6355 14.7317C10.4581 14.9106 10.2365 15 9.97044 15Z" fill="#B2B5C4"/>
<path id="Union" fill-rule="evenodd" clip-rule="evenodd" d="M0 1.96078C0 0.877889 0.895432 0 2 0H18C19.1046 0 20 0.877889 20 1.96078V18.6275C20 18.8982 19.7761 19.1176 19.5 19.1176H2.5C1.67157 19.1176 1 19.776 1 20.5882V22.549C1 23.3612 1.67157 24.0196 2.5 24.0196H19.5C19.7761 24.0196 20 24.2391 20 24.5098C20 24.7805 19.7761 25 19.5 25H2.5C1.11929 25 0 23.9027 0 22.549V1.96078ZM2 0.980392H18C18.5523 0.980392 19 1.41931 19 1.96078V18.1373H2.5C1.93719 18.1373 1.41783 18.3196 1 18.6273V1.96078C1 1.41931 1.44772 0.980392 2 0.980392Z" fill="#B2B5C4"/>
</g>
</svg>
