<svg width="148" height="35" viewBox="0 0 148 35" fill="none" xmlns="http://www.w3.org/2000/svg">
<path fill-rule="evenodd" clip-rule="evenodd" d="M17.7165 34.4264H10.9241L0 13.0588H6.50819L14.3686 29.1401L22.2126 13.0588H28.7207L17.7162 34.4264H17.7165ZM120.596 0.989794C120.864 1.05907 121.265 1.24897 121.543 1.36708C121.907 1.52275 122.123 1.63668 122.403 1.85934C123.628 2.83489 122.94 4.80268 122.903 6.11085C122.83 8.69173 124.926 10.9525 127.266 11.8202L126.107 13.7101C125.753 13.5611 125.387 13.4255 125.008 13.3032C123.378 12.7778 121.585 12.5175 119.627 12.5175C117.497 12.5175 115.571 12.8041 113.838 13.3825C112.11 13.9557 110.635 14.7518 109.416 15.776C108.193 16.7951 107.249 17.9998 106.584 19.3798C105.918 20.765 105.586 22.2668 105.586 23.8802C105.586 25.6264 105.918 27.1815 106.578 28.5612C107.238 29.9412 108.199 31.1089 109.454 32.0586C110.709 33.0139 112.26 33.7413 114.1 34.2453C115.941 34.7496 118.039 34.999 120.394 34.999C122.24 34.999 124.042 34.8715 125.808 34.6169C127.578 34.3675 129.343 33.9481 131.114 33.3697V28.3805C130.674 28.6407 130.095 28.9007 129.376 29.1557C128.662 29.4155 127.857 29.6544 126.967 29.8669C126.076 30.0791 125.116 30.249 124.091 30.376C123.061 30.5088 122.014 30.5724 120.947 30.5724C119.434 30.5724 118.141 30.461 117.057 30.2433C115.968 30.0259 115.056 29.7235 114.31 29.3306C113.569 28.9379 112.979 28.4602 112.545 27.8976C112.11 27.3407 111.799 26.7249 111.606 26.0509H132.891V24.6179C132.891 22.6595 132.568 20.929 131.925 19.4219C131.329 18.0326 130.509 16.8477 129.463 15.8628L131.112 13.5607C131.277 13.461 132.401 12.7705 132.873 12.1465C133.248 12.0641 133.629 11.9562 134.012 11.8166C134.608 11.5341 135.167 11.2186 135.718 10.8361C136.645 10.1933 136.498 10.0508 138.094 9.9469C139.244 9.87178 140.099 9.43982 140.488 9.47488C140.907 9.51202 148.309 10.6818 147.99 10.03C147.944 9.93626 147.777 9.88743 147.587 9.83881C147.497 9.81627 147.447 9.7689 147.425 9.73885C147.953 9.61845 147.868 9.14079 147.868 9.14079C147.851 8.89101 147.606 8.70404 147.279 8.6429C145.956 8.39541 144.606 8.36599 143.262 8.23181C142.434 8.14897 141.192 7.96095 140.789 7.84514C141.219 7.76459 141.966 7.75854 142.308 7.60662C142.066 7.22642 141.594 7.09892 141.057 6.98185C140.05 6.76212 138.821 6.66258 137.867 6.30909C137.388 6.13193 137.038 5.88945 136.58 5.68516C135.026 4.99153 132.816 3.94607 131.258 3.38265C130.172 2.99035 129.115 2.79294 128.313 2.08199C127.895 1.7118 127.546 1.26816 127.103 0.920931C126.111 0.14237 124.815 -0.315042 123.588 0.251924C123.12 0.46811 122.825 0.679496 122.126 0.655916C121.418 0.591644 120.867 0.613346 120.596 0.989167L120.596 0.989794ZM126.77 14.0123L127.563 12.7185C127.726 12.4549 128.018 12.0666 128.376 12.1363C128.958 12.2492 129.584 12.3322 130.178 12.365C130.484 12.3819 130.893 12.6252 130.59 13.0488L128.916 15.3849C128.267 14.8549 127.553 14.3977 126.77 14.0125L126.77 14.0123ZM59.8883 23.7588C59.8883 25.5949 59.5504 27.2138 58.869 28.6148C58.1876 30.0215 57.2113 31.1943 55.9447 32.1389C54.6733 33.0838 53.1386 33.7949 51.3307 34.2778C49.5224 34.7607 47.4943 34.9996 45.2411 34.9996C42.9874 34.9996 40.954 34.7607 39.1352 34.2778C37.3161 33.7949 35.7656 33.0836 34.4889 32.1389C33.2118 31.194 32.2247 30.0215 31.5324 28.6148C30.8404 27.2138 30.497 25.5951 30.497 23.7588C30.497 21.9223 30.8404 20.3036 31.5324 18.9025C32.2247 17.4959 33.2118 16.3231 34.4889 15.3785C35.7656 14.4336 37.3163 13.7224 39.1352 13.2396C40.9543 12.7567 42.9877 12.5178 45.2411 12.5178C47.4943 12.5178 49.5224 12.7567 51.3307 13.2396C53.1386 13.7224 54.6733 14.4338 55.9447 15.3785C57.2113 16.3233 58.1876 17.4959 58.869 18.9025C59.5504 20.3036 59.8883 21.9223 59.8883 23.7588ZM53.9972 23.7588C53.9972 22.9625 53.8683 22.1664 53.611 21.3705C53.3536 20.5797 52.8973 19.8683 52.2429 19.2316C51.5881 18.6002 50.6977 18.0906 49.5655 17.6922C48.4335 17.2995 46.9901 17.1031 45.2413 17.1031C44.0661 17.1031 43.036 17.1935 42.1451 17.374C41.2547 17.5545 40.4819 17.8091 39.8326 18.1277C39.1835 18.4512 38.6365 18.828 38.1964 19.2579C37.7562 19.6878 37.4075 20.1496 37.1448 20.6431C36.8818 21.1316 36.6938 21.6462 36.5866 22.1825C36.474 22.7131 36.4204 23.2386 36.4204 23.7588C36.4204 24.2894 36.474 24.8201 36.5866 25.3614C36.6938 25.8973 36.8818 26.4175 37.1448 26.9058C37.4075 27.3997 37.7562 27.8611 38.1964 28.2858C38.6363 28.7104 39.1835 29.0821 39.8326 29.3953C40.4819 29.7135 41.2547 29.9633 42.1451 30.1434C43.036 30.3239 44.0661 30.4142 45.2413 30.4142C46.9903 30.4142 48.4337 30.2179 49.5655 29.8251C50.6977 29.4268 51.5883 28.9176 52.2429 28.2858C52.8973 27.6491 53.3536 26.9377 53.611 26.1473C53.8683 25.351 53.9972 24.5549 53.9972 23.759V23.7588ZM65.2055 34.4264V13.0588H71.0325V34.4264H65.2055ZM101.588 32.9615C100.837 33.2747 100.075 33.5562 99.3132 33.8002C98.5459 34.0495 97.7574 34.2674 96.9363 34.4475C96.1208 34.628 95.2569 34.7661 94.35 34.8615C93.4431 34.9518 92.4721 34.9994 91.4367 34.9994C89.2367 34.9994 87.2088 34.7659 85.3578 34.2987C83.5118 33.8319 81.9184 33.1312 80.5827 32.1917C79.2465 31.2525 78.2056 30.0847 77.4652 28.6785C76.7196 27.277 76.3492 25.6321 76.3492 23.7586C76.3492 21.8795 76.7196 20.2397 77.4652 18.8387C78.2054 17.432 79.2465 16.2589 80.5827 15.325C81.9184 14.3856 83.512 13.6853 85.3578 13.2181C87.2088 12.7508 89.2369 12.5173 91.4367 12.5173C92.4721 12.5173 93.4431 12.5651 94.35 12.6553C95.2569 12.7508 96.1208 12.8888 96.9363 13.0693C97.7572 13.2494 98.5457 13.4672 99.3132 13.7114C100.075 13.9607 100.837 14.242 101.588 14.5555V19.7462C100.993 19.4223 100.365 19.1039 99.7049 18.7909C99.0448 18.4723 98.3151 18.1857 97.5213 17.9364C96.7218 17.6814 95.8472 17.4746 94.8922 17.3097C93.9427 17.1507 92.8641 17.0708 91.6732 17.0708C89.8379 17.0708 88.3144 17.2565 87.1071 17.6282C85.8945 18.005 84.9288 18.5038 84.2046 19.125C83.4801 19.746 82.9757 20.4567 82.6806 21.2635C82.3855 22.065 82.2408 22.8984 82.2408 23.7582C82.2408 24.3258 82.3051 24.8883 82.4285 25.4457C82.5574 25.9974 82.7665 26.5229 83.0563 27.0168C83.3514 27.5103 83.7324 27.9617 84.2046 28.3753C84.6769 28.7893 85.2617 29.1505 85.9641 29.4477C86.6672 29.75 87.4881 29.9835 88.4268 30.1588C89.366 30.3285 90.4442 30.4134 91.6732 30.4134C92.8641 30.4134 93.9427 30.3389 94.8922 30.1903C95.8474 30.0365 96.7218 29.8402 97.5213 29.5908C98.3151 29.3414 99.0448 29.0601 99.7049 28.7415C100.365 28.4283 100.993 28.0992 101.588 27.7703V32.9607V32.9615ZM127.09 21.8162C127.036 21.2856 126.881 20.7387 126.613 20.1765C126.344 19.6085 125.92 19.0989 125.346 18.6423C124.772 18.1862 124.015 17.8093 123.082 17.5174C122.148 17.2202 120.989 17.0712 119.594 17.0712C118.285 17.0712 117.153 17.2306 116.198 17.5545C115.243 17.8727 114.444 18.2763 113.8 18.754C113.156 19.2264 112.657 19.7408 112.298 20.2929C111.944 20.8394 111.713 21.349 111.606 21.8162H127.09H127.09Z" fill="#23262F"/>
</svg>
