<svg width="43" height="23" viewBox="0 0 43 23" fill="none" xmlns="http://www.w3.org/2000/svg">
<path id="Union" fill-rule="evenodd" clip-rule="evenodd" d="M23.526 12.678C26.1238 11.8267 28 9.38244 28 6.5C28 2.91015 25.0899 0 21.5 0C17.9101 0 15 2.91015 15 6.5C15 9.38244 16.8762 11.8267 19.474 12.678C16.9589 13.1256 14.7392 14.3912 13.1365 16.1788C12.2566 15.4749 11.2339 14.9615 10.1223 14.6987C11.8059 14.0477 13 12.4133 13 10.5C13 8.01472 10.9853 6 8.5 6C6.01472 6 4 8.01472 4 10.5C4 12.3888 5.16367 14.0058 6.8132 14.6732C3.18797 15.4704 0.5 18.9226 0.5 23H1.5C1.5 18.8213 4.63047 15.5 8.41355 15.5C9.94145 15.5 11.3561 16.0375 12.5046 16.9539C11.2427 18.6606 10.5 20.7445 10.5 23H11.5C11.5 17.776 15.9539 13.5 21.5 13.5C27.0461 13.5 31.5 17.776 31.5 23H32.5C32.5 20.7609 31.768 18.6909 30.5228 16.9911C31.6721 16.0518 33.0948 15.5 34.6325 15.5C38.3873 15.5 41.5 18.8183 41.5 23H42.5C42.5 18.916 39.8178 15.4553 36.1998 14.6679C37.8424 13.9973 39 12.3838 39 10.5C39 8.01472 36.9853 6 34.5 6C32.0147 6 30 8.01472 30 10.5C30 12.4215 31.2043 14.0616 32.8992 14.707C31.7893 14.9766 30.7694 15.4992 29.8943 16.2133C28.2894 14.4075 26.0572 13.1285 23.526 12.678ZM27 6.5C27 9.53757 24.5376 12 21.5 12C18.4624 12 16 9.53757 16 6.5C16 3.46243 18.4624 1 21.5 1C24.5376 1 27 3.46243 27 6.5ZM38 10.5C38 12.433 36.433 14 34.5 14C32.567 14 31 12.433 31 10.5C31 8.567 32.567 7 34.5 7C36.433 7 38 8.567 38 10.5ZM8.5 14C10.433 14 12 12.433 12 10.5C12 8.567 10.433 7 8.5 7C6.567 7 5 8.567 5 10.5C5 12.433 6.567 14 8.5 14Z" fill="#777E90"/>
</svg>
